<svg width="28" height="28" viewBox="0 0 28 28" fill="none" xmlns="http://www.w3.org/2000/svg">
<path fill-rule="evenodd" clip-rule="evenodd" d="M24.6491 3.43603C24.7932 3.57946 24.9075 3.75001 24.9853 3.93784C25.0632 4.12566 25.1031 4.32704 25.1027 4.53037C25.1023 4.73369 25.0617 4.93492 24.9832 5.12246C24.9046 5.31 24.7897 5.48013 24.6451 5.62303L16.2271 14.042L24.6451 22.462C25.2161 23.032 25.2541 23.934 24.7451 24.544L24.6491 24.649C24.5056 24.7933 24.335 24.9077 24.1471 24.9857C23.9592 25.0636 23.7577 25.1035 23.5542 25.1032C23.3508 25.1028 23.1494 25.0621 22.9618 24.9835C22.7742 24.9048 22.604 24.7898 22.4611 24.645L14.0421 16.225L5.62307 24.645C5.35121 24.9191 4.98657 25.0813 4.60101 25.0998C4.21544 25.1183 3.83693 24.9918 3.54007 24.745L3.43607 24.649C3.29181 24.5056 3.1774 24.335 3.09945 24.1471C3.02151 23.9591 2.98156 23.7576 2.98194 23.5542C2.98231 23.3508 3.02299 23.1494 3.10162 22.9618C3.18025 22.7741 3.29529 22.604 3.44007 22.461L11.8581 14.041L3.44007 5.62403C3.16604 5.35217 3.00378 4.98753 2.98527 4.60197C2.96676 4.2164 3.09334 3.83789 3.34007 3.54103L3.43607 3.43703C3.5795 3.29292 3.75005 3.17864 3.93787 3.10078C4.1257 3.02292 4.32708 2.98303 4.53041 2.9834C4.73373 2.98377 4.93496 3.0244 5.1225 3.10295C5.31004 3.18149 5.48017 3.2964 5.62307 3.44103L14.0431 11.858L22.4601 3.44003C22.7319 3.166 23.0966 3.00374 23.4821 2.98523C23.8677 2.96672 24.2462 3.0933 24.5431 3.34003L24.6491 3.43603Z" fill="#7D7D7D"/>
</svg>
